<svg viewBox="0 0 32 32" xmlns="http://www.w3.org/2000/svg" aria-hidden="true">
  <path fill="#fff" d="M19.11 17.37c-.29-.14-1.7-.84-1.96-.94-.26-.1-.45-.14-.64.14s-.73.94-.9 1.13-.33.21-.62.07c-.29-.14-1.22-.45-2.32-1.43-.86-.76-1.44-1.7-1.61-1.99-.17-.29-.02-.45.12-.59.12-.12.29-.33.43-.5.14-.17.19-.29.29-.48.1-.19.05-.36-.02-.5-.07-.14-.64-1.54-.88-2.1-.23-.55-.46-.48-.64-.48h-.55c-.19 0-.5.07-.76.36s-1 1-1 2.43 1.03 2.82 1.17 3.01c.14.19 2.04 3.11 4.94 4.36.69.3 1.23.48 1.65.62.69.22 1.32.19 1.82.12.55-.08 1.7-.7 1.94-1.37.24-.67.24-1.24.17-1.36-.07-.12-.26-.19-.55-.33z"/>
  <path fill="#25D366" d="M27.21 4.79A13.93 13.93 0 0016 2C8.28 2 2 8.27 2 16c0 2.46.64 4.84 1.86 6.94L2 30l7.23-1.86A13.93 13.93 0 0016 30c7.73 0 14-6.27 14-14 0-3.73-1.45-7.23-4.79-11.21zM16 27.33c-2.38 0-4.61-.69-6.56-1.99l-.47-.31-4.3 1.11 1.14-4.2-.32-.5A11.3 11.3 0 014.67 16c0-6.25 5.08-11.33 11.33-11.33S27.33 9.75 27.33 16 22.25 27.33 16 27.33z"/>
</svg>
